<svg class="icon" style="width: 1.0029296875em;height: 1em;vertical-align: middle;fill: currentColor;overflow: hidden;" viewBox="0 0 1027 1024" version="1.1" xmlns="http://www.w3.org/2000/svg" p-id="7770"><path d="M1027.917056 536.5504a202.1888 202.1888 0 0 0-133.8112-190.72c3.4816-18.2528 5.1968-36.5056 5.1968-55.1936C899.328256 130.3296 769.024256 0 609.101056 0c-93.8496 0-180.736 44.7488-235.4688 120.32A154.2656 154.2656 0 0 0 125.133056 242.432c0 18.688 3.456 36.9408 9.5488 53.888C54.733056 324.9664 0.000256 401.8688 0.000256 487.4496a202.752 202.752 0 0 0 134.2464 191.1552 289.7152 289.7152 0 0 0-5.2224 55.168c0 159.8976 129.92 289.792 289.792 289.792 93.8496 0 180.736-45.184 235.008-120.7808a151.8336 151.8336 0 0 0 94.3104 33.024 154.2656 154.2656 0 0 0 154.2144-154.24 159.744 159.744 0 0 0-9.5488-53.8624c79.9232-28.672 135.1168-105.5744 135.1168-191.1552z" fill="#FFFFFF" p-id="7771"></path><path d="M404.019456 440.96l225.0496 102.528 226.7904-198.9632a237.7984 237.7984 0 0 0 4.7872-49.9712c0-139.8784-113.8432-253.696-253.7216-253.696a252.928 252.928 0 0 0-208.9728 110.336l-37.8112 195.9424 43.8784 93.824z" fill="#FED10A" p-id="7772"></path><path d="M171.187456 679.04a245.9648 245.9648 0 0 0-4.7872 50.8416c0 140.3136 114.2528 254.1568 254.592 254.1568a254.3872 254.3872 0 0 0 210.2784-111.232l37.376-195.072-49.9968-95.5648-225.8944-102.9632-221.568 199.8336z" fill="#24BBB1" p-id="7773"></path><path d="M169.856256 289.792l154.24 36.48 33.8688-175.104a120.9856 120.9856 0 0 0-73.856-24.7552 121.728 121.728 0 0 0-114.2528 163.3536z" fill="#EF5098" p-id="7774"></path><path d="M156.416256 326.7072c-68.6592 22.5792-116.864 88.6272-116.864 161.1776A170.4704 170.4704 0 0 0 148.992256 646.912l216.3712-195.4816-39.552-84.736-169.4208-39.9616z" fill="#1BA9F5" p-id="7775"></path><path d="M670.361856 872.8064a122.0608 122.0608 0 0 0 73.4208 25.1904 121.728 121.728 0 0 0 121.6512-121.6256c0-14.7712-2.6112-29.1072-7.3984-42.1632l-153.7792-36.0448-33.8944 174.6432z" fill="#93C83E" p-id="7776"></path><path d="M701.619456 657.7664l169.472 39.5264c69.0432-22.6048 116.8384-88.6272 116.8384-161.6128a169.8816 169.8816 0 0 0-109.4656-158.5664l-221.568 194.2016 44.7232 86.4512z" fill="#0B64DD" p-id="7777"></path></svg>